<svg width="15" height="20" viewBox="0 0 15 20" fill="none" xmlns="http://www.w3.org/2000/svg">
<path fill-rule="evenodd" clip-rule="evenodd" d="M0 19.5945H14.22V-0.000488281H0V19.5945ZM2.25 17.3445H11.97V2.24951H2.25V17.3445ZM3.5 5.54751H5.5V3.54751H3.5V5.54751ZM8.243 5.54751H6.243V3.54751H8.243V5.54751ZM8.97 5.54751H10.97V3.54751H8.97V5.54751ZM5.5 8.71351H3.5V6.71351H5.5V8.71351ZM6.243 8.71351H8.243V6.71351H6.243V8.71351ZM10.97 8.71351H8.97V6.71351H10.97V8.71351ZM3.5 11.7965H5.5V9.79651H3.5V11.7965ZM8.243 11.7965H6.243V9.79651H8.243V11.7965Z" fill="black"/>
</svg>
