<svg width="14" height="12" viewBox="0 0 14 12" fill="none" xmlns="http://www.w3.org/2000/svg">
<path d="M3.072 11.744L8.896 0H10.784L4.96 11.744H3.072ZM2.912 0.144C3.84 0.144 4.55467 0.437333 5.056 1.024C5.55733 1.6 5.808 2.42667 5.808 3.504C5.808 4.58133 5.55733 5.41333 5.056 6C4.55467 6.576 3.84 6.864 2.912 6.864C1.984 6.864 1.264 6.57067 0.752 5.984C0.250666 5.39733 0 4.57067 0 3.504C0 2.42667 0.250666 1.6 0.752 1.024C1.264 0.437333 1.984 0.144 2.912 0.144ZM2.912 1.728C2.4 1.728 2.144 2.32 2.144 3.504C2.144 4.10133 2.20267 4.544 2.32 4.832C2.448 5.12 2.64533 5.264 2.912 5.264C3.424 5.264 3.68 4.67733 3.68 3.504C3.68 2.32 3.424 1.728 2.912 1.728ZM10.96 4.88C11.888 4.88 12.6027 5.17333 13.104 5.76C13.6053 6.336 13.856 7.16267 13.856 8.24C13.856 9.31733 13.6053 10.1493 13.104 10.736C12.6027 11.312 11.888 11.6 10.96 11.6C10.032 11.6 9.312 11.312 8.8 10.736C8.29867 10.1493 8.048 9.31733 8.048 8.24C8.048 7.17333 8.29867 6.34667 8.8 5.76C9.312 5.17333 10.032 4.88 10.96 4.88ZM10.96 6.48C10.448 6.48 10.192 7.06667 10.192 8.24C10.192 8.83733 10.2507 9.28533 10.368 9.584C10.496 9.872 10.6933 10.016 10.96 10.016C11.472 10.016 11.728 9.424 11.728 8.24C11.728 7.06667 11.472 6.48 10.96 6.48Z" fill="white"/>
</svg>
