<svg width="18" height="18" viewBox="0 0 18 18" fill="none" xmlns="http://www.w3.org/2000/svg">
<path fill-rule="evenodd" clip-rule="evenodd" d="M10.682 4.31802C12.4393 6.07538 12.4393 8.92462 10.682 10.682C8.92462 12.4393 6.07538 12.4393 4.31802 10.682C2.56066 8.92462 2.56066 6.07538 4.31802 4.31802C6.07538 2.56066 8.92462 2.56066 10.682 4.31802ZM13.7579 11.6366C15.6872 8.72453 15.369 4.7624 12.8033 2.1967C9.87437 -0.732233 5.12563 -0.732233 2.1967 2.1967C-0.732233 5.12563 -0.732233 9.87437 2.1967 12.8033C4.76238 15.369 8.72447 15.6872 11.6365 13.7579L15.2782 17.3995L17.3995 15.2782L13.7579 11.6366Z" fill="black"/>
</svg>
